<svg xmlns="http://www.w3.org/2000/svg" viewBox="0 0 453.24 45.26"><defs><style>.cls-1{fill:#fff;}</style></defs><title>logo</title><g id="Calque_2" data-name="Calque 2"><g id="Calque_1-2" data-name="Calque 1"><path class="cls-1" d="M5.42,41.66Q.42,38.06,0,31.08H14.3q.3,3.7,3.27,3.7a3.22,3.22,0,0,0,1.85-.51,1.81,1.81,0,0,0,.76-1.61,2.78,2.78,0,0,0-1.64-2.45,31.62,31.62,0,0,0-5.09-2.15,54.9,54.9,0,0,1-6.82-2.85A13.22,13.22,0,0,1,2,21.15,11.1,11.1,0,0,1,.12,14.3,11.75,11.75,0,0,1,2.27,7.18,13.34,13.34,0,0,1,8.15,2.73a22.08,22.08,0,0,1,8.39-1.52q7.88,0,12.52,3.64a12.9,12.9,0,0,1,4.87,10.24H19.45a3.6,3.6,0,0,0-.91-2.61,2.93,2.93,0,0,0-2.06-.79,1.85,1.85,0,0,0-1.39.58,2.22,2.22,0,0,0-.55,1.61,2.76,2.76,0,0,0,1.61,2.39,36.71,36.71,0,0,0,5.12,2.27A57.62,57.62,0,0,1,28,21.45a14.11,14.11,0,0,1,4.58,3.88,9.87,9.87,0,0,1,1.94,6.24,13.11,13.11,0,0,1-1.94,7.06,13,13,0,0,1-5.64,4.88,20.28,20.28,0,0,1-8.78,1.75Q10.43,45.26,5.42,41.66Z"/><path class="cls-1" d="M75.38,10.66V44.84H61.93V39.63a12.26,12.26,0,0,1-4.21,3.94,12.4,12.4,0,0,1-6.28,1.51,11.34,11.34,0,0,1-9.18-3.94Q39,37.21,39,30.48V10.66H52.35V28.78a5.48,5.48,0,0,0,1.31,3.85,5,5,0,0,0,7,0,5.6,5.6,0,0,0,1.27-3.85V10.66Z"/><path class="cls-1" d="M81.47,18.39a14.12,14.12,0,0,1,5.06-6.06,13,13,0,0,1,7.21-2.09,11.41,11.41,0,0,1,5.73,1.36,9.31,9.31,0,0,1,3.66,3.73V0h13.45V44.84H103.13V40.17a9.31,9.31,0,0,1-3.66,3.73,11.41,11.41,0,0,1-5.73,1.36,12.87,12.87,0,0,1-7.21-2.09,14.06,14.06,0,0,1-5.06-6.06,22,22,0,0,1-1.85-9.36A22,22,0,0,1,81.47,18.39Zm20.33,5.12a5,5,0,0,0-7.15,0,6,6,0,0,0-1.4,4.24A6,6,0,0,0,94.65,32a5,5,0,0,0,7.15,0,6,6,0,0,0,1.39-4.24A6,6,0,0,0,101.8,23.51Z"/><path class="cls-1" d="M129.61,43.14a15.53,15.53,0,0,1-6.45-6.09,17.94,17.94,0,0,1-2.34-9.3,18,18,0,0,1,2.34-9.3,15.65,15.65,0,0,1,6.45-6.09,21.33,21.33,0,0,1,18.54,0,15.74,15.74,0,0,1,6.46,6.09,18.09,18.09,0,0,1,2.33,9.3,18,18,0,0,1-2.33,9.3,15.61,15.61,0,0,1-6.46,6.09,21.33,21.33,0,0,1-18.54,0Zm12.42-11a6.6,6.6,0,0,0,1.28-4.4A6.57,6.57,0,0,0,142,23.36a4.07,4.07,0,0,0-6.3,0,6.57,6.57,0,0,0-1.27,4.39,6.71,6.71,0,0,0,1.24,4.4,4.12,4.12,0,0,0,6.33,0Z"/><path class="cls-1" d="M183.05,44.84l-8.42-13.63V44.84H161.18V0h13.45V23.45l8.55-12.79h15.63L186,27.87l13.09,17Z"/><path class="cls-1" d="M238.32,10.66V44.84H224.86V39.63a12.17,12.17,0,0,1-4.21,3.94,12.33,12.33,0,0,1-6.27,1.51,11.31,11.31,0,0,1-9.18-3.94q-3.3-3.93-3.3-10.66V10.66h13.39V28.78a5.47,5.47,0,0,0,1.3,3.85,5,5,0,0,0,7,0,5.55,5.55,0,0,0,1.27-3.85V10.66Z"/><path class="cls-1" d="M258.77,41.66c-3.34-2.4-5.14-5.93-5.43-10.58h14.3q.32,3.7,3.28,3.7a3.21,3.21,0,0,0,1.84-.51,1.81,1.81,0,0,0,.76-1.61,2.77,2.77,0,0,0-1.63-2.45,32,32,0,0,0-5.09-2.15A54.9,54.9,0,0,1,260,25.21a13.25,13.25,0,0,1-4.64-4.06,11.1,11.1,0,0,1-1.88-6.85,11.69,11.69,0,0,1,2.16-7.12,13.25,13.25,0,0,1,5.87-4.45,22.14,22.14,0,0,1,8.4-1.52q7.88,0,12.51,3.64a12.91,12.91,0,0,1,4.88,10.24H272.79a3.64,3.64,0,0,0-.9-2.61,3,3,0,0,0-2.06-.79,1.87,1.87,0,0,0-1.4.58,2.25,2.25,0,0,0-.54,1.61,2.74,2.74,0,0,0,1.6,2.39,36.71,36.71,0,0,0,5.12,2.27,57.86,57.86,0,0,1,6.7,2.91,14.08,14.08,0,0,1,4.57,3.88,9.81,9.81,0,0,1,1.94,6.24,12.73,12.73,0,0,1-7.57,11.94,20.36,20.36,0,0,1-8.79,1.75Q263.77,45.26,258.77,41.66Z"/><path class="cls-1" d="M299.52,43.14a15.61,15.61,0,0,1-6.46-6.09,18,18,0,0,1-2.33-9.3,18.09,18.09,0,0,1,2.33-9.3,15.74,15.74,0,0,1,6.46-6.09,21.33,21.33,0,0,1,18.54,0,15.65,15.65,0,0,1,6.45,6.09,18,18,0,0,1,2.33,9.3,17.94,17.94,0,0,1-2.33,9.3,15.53,15.53,0,0,1-6.45,6.09,21.33,21.33,0,0,1-18.54,0Zm12.42-11a6.6,6.6,0,0,0,1.27-4.4,6.57,6.57,0,0,0-1.27-4.39,4.07,4.07,0,0,0-6.3,0,6.57,6.57,0,0,0-1.28,4.39,6.71,6.71,0,0,0,1.25,4.4,3.93,3.93,0,0,0,3.18,1.48A4,4,0,0,0,311.94,32.15Z"/><path class="cls-1" d="M344.54,0V44.84H331.09V0Z"/><path class="cls-1" d="M367.93,32.05l5.45-21.39h14.3L376.29,44.84H359.5L348.11,10.66h14.3Z"/><path class="cls-1" d="M424.16,30.12H402.53c.2,2.94,1.43,4.42,3.69,4.42a3.26,3.26,0,0,0,3.15-2h14.24a14.72,14.72,0,0,1-3.06,6.51,16.34,16.34,0,0,1-5.88,4.55,18,18,0,0,1-7.78,1.66,18.88,18.88,0,0,1-9.06-2.12,15,15,0,0,1-6.18-6.09,18.71,18.71,0,0,1-2.21-9.3,18.76,18.76,0,0,1,2.21-9.3,15.1,15.1,0,0,1,6.18-6.09,19,19,0,0,1,9.06-2.12A19.21,19.21,0,0,1,416,12.33a15.06,15.06,0,0,1,6.18,6,18.2,18.2,0,0,1,2.21,9.15A19.1,19.1,0,0,1,424.16,30.12Zm-13.45-5.88a3.15,3.15,0,0,0-1.09-2.58,4.26,4.26,0,0,0-2.73-.88,3.8,3.8,0,0,0-4.18,3.46Z"/><path class="cls-1" d="M447.06,12.21a11.84,11.84,0,0,1,6.18-1.79V24.78h-3.81q-3.82,0-5.61,1.34c-1.19.88-1.79,2.46-1.79,4.72v14H428.58V10.66H442V17A16.39,16.39,0,0,1,447.06,12.21Z"/></g></g></svg>