<svg xmlns="http://www.w3.org/2000/svg" viewBox="0 0 21.89 33.77"><defs><style>.cls-1{fill:none;stroke:#000;stroke-linecap:round;stroke-miterlimit:10;}</style></defs><title>bulb</title><g id="Calque_2" data-name="Calque 2"><g id="Calque_1-2" data-name="Calque 1"><path class="cls-1" d="M15.42,27.57c.42.24.68.51.68.81s-.26.58-.68.82c.42.24.68.51.68.81s-.26.58-.68.82c.42.24.68.51.68.81,0,.9-2.2,1.63-4.92,1.63s-4.92-.73-4.92-1.63c0-.3.26-.57.68-.81-.42-.24-.68-.52-.68-.82s.26-.57.68-.81c-.42-.24-.68-.52-.68-.82s.26-.57.68-.81c-.42-.24-.68-.52-.68-.82s.26-.57.68-.81c-.42-.25-.68-.52-.68-.82s.24-.55.63-.78a12.19,12.19,0,0,0,8.58,0c.39.23.63.49.63.78s-.26.57-.68.82c.42.24.68.51.68.81S15.84,27.33,15.42,27.57Z"/><path class="cls-1" d="M15.47,24.34a12.19,12.19,0,0,1-8.58,0C5.66,19.24.5,16,.5,10.72.5,3.92,4.38.5,11.18.5S21.24,3.2,21.38,10C21.57,19.36,16.58,17.78,15.47,24.34Z"/></g></g></svg>