<svg xmlns="http://www.w3.org/2000/svg" viewBox="0 0 22.94 33.85"><defs><style>.cls-1,.cls-2{fill:none;stroke:#000;stroke-miterlimit:10;}.cls-2{stroke-linecap:round;}</style></defs><title>pencil</title><g id="Calque_2" data-name="Calque 2"><g id="Calque_1-2" data-name="Calque 1"><path class="cls-1" d="M13.65,3.62l.63-1.08a4.08,4.08,0,1,1,7.06,4.08l-13,22.56L4.41,26.92"/><line class="cls-1" x1="1.46" y1="25.22" x2="4.41" y2="26.92"/><polyline class="cls-1" points="1.46 25.22 1.25 25.1 13.65 3.62"/><path class="cls-1" d="M1.46,25.22a.55.55,0,0,0-.51.66l-.45,7a.56.56,0,0,0,.67.42L7.61,30a.55.55,0,0,0,.19-1L4.41,26.92"/><path class="cls-1" d="M1.46,25.22a.56.56,0,0,1,.35.08l2.6,1.62"/><line class="cls-1" x1="13.65" y1="3.62" x2="13.65" y2="3.62"/><line class="cls-1" x1="20.76" y1="7.64" x2="13.65" y2="3.62"/><line class="cls-2" x1="20.12" y1="17.06" x2="20.12" y2="21.69"/><line class="cls-2" x1="22.44" y1="19.38" x2="17.81" y2="19.38"/></g></g></svg>